<svg width="133" height="36" viewBox="0 0 133 36" fill="none" xmlns="http://www.w3.org/2000/svg">
<path d="M57.8881 12.7357C58.9902 12.7357 59.9442 12.9194 60.7501 13.2868C61.5678 13.6542 62.1959 14.1756 62.6343 14.8511C63.0728 15.5266 63.2921 16.3266 63.2921 17.2509C63.2921 18.1635 63.0728 18.9634 62.6343 19.6507C62.1959 20.3262 61.5678 20.8477 60.7501 21.2151C59.9442 21.5706 58.9902 21.7484 57.8881 21.7484H55.3816V25.1792H52.5018V12.7357H57.8881ZM57.7281 19.4019C58.5932 19.4019 59.2509 19.2182 59.7012 18.8508C60.1516 18.4716 60.3767 17.9383 60.3767 17.2509C60.3767 16.5517 60.1516 16.0184 59.7012 15.6511C59.2509 15.2718 58.5932 15.0822 57.7281 15.0822H55.3816V19.4019H57.7281ZM68.9232 15.4733C70.4045 15.4733 71.5422 15.8288 72.3362 16.5399C73.1302 17.2391 73.5272 18.2997 73.5272 19.7218V25.1792H70.9319V23.9882C70.4105 24.877 69.4387 25.3214 68.0166 25.3214C67.2818 25.3214 66.6419 25.197 66.0967 24.9481C65.5634 24.6992 65.1546 24.3556 64.8701 23.9171C64.5857 23.4786 64.4435 22.9809 64.4435 22.4239C64.4435 21.535 64.7753 20.8358 65.439 20.3262C66.1145 19.8167 67.1514 19.5619 68.5499 19.5619H70.7541C70.7541 18.9575 70.5704 18.4953 70.2031 18.1753C69.8357 17.8435 69.2846 17.6776 68.5499 17.6776C68.0403 17.6776 67.5366 17.7605 67.0389 17.9264C66.553 18.0805 66.1382 18.2938 65.7945 18.5664L64.799 16.6288C65.3205 16.2614 65.9427 15.977 66.6656 15.7755C67.4003 15.574 68.1529 15.4733 68.9232 15.4733ZM68.7098 23.4549C69.1839 23.4549 69.6046 23.3482 69.972 23.1349C70.3393 22.9097 70.6001 22.5838 70.7541 22.1572V21.1795H68.8521C67.7144 21.1795 67.1455 21.5528 67.1455 22.2994C67.1455 22.655 67.2818 22.9394 67.5544 23.1527C67.8388 23.3542 68.224 23.4549 68.7098 23.4549ZM82.2055 24.717C81.9329 24.9185 81.5951 25.0725 81.1922 25.1792C80.8011 25.274 80.3863 25.3214 79.9479 25.3214C78.8102 25.3214 77.9273 25.0311 77.2992 24.4504C76.6829 23.8697 76.3748 23.0164 76.3748 21.8906V17.962H74.8994V15.8288H76.3748V13.5001H79.1479V15.8288H81.53V17.962H79.1479V21.855C79.1479 22.2579 79.2486 22.572 79.4501 22.7972C79.6634 23.0105 79.9597 23.1171 80.3389 23.1171C80.7774 23.1171 81.1507 22.9986 81.4588 22.7616L82.2055 24.717ZM89.575 15.4733C90.7601 15.4733 91.7141 15.8288 92.437 16.5399C93.1718 17.2509 93.5391 18.3057 93.5391 19.7041V25.1792H90.766V20.1307C90.766 19.3722 90.6001 18.8093 90.2683 18.4419C89.9365 18.0627 89.4565 17.8731 88.8284 17.8731C88.1292 17.8731 87.5722 18.0923 87.1574 18.5308C86.7426 18.9575 86.5353 19.5974 86.5353 20.4507V25.1792H83.7621V11.9891H86.5353V16.611C86.9026 16.2436 87.347 15.9651 87.8685 15.7755C88.3899 15.574 88.9588 15.4733 89.575 15.4733ZM100.337 25.3925C99.3533 25.3925 98.3993 25.2622 97.475 25.0014C96.5624 24.7289 95.8277 24.3793 95.2707 23.9526L96.2484 21.7839C96.7817 22.175 97.4157 22.489 98.1505 22.7261C98.8852 22.9631 99.62 23.0816 100.355 23.0816C101.172 23.0816 101.777 22.9631 102.168 22.7261C102.559 22.4772 102.755 22.1513 102.755 21.7484C102.755 21.4521 102.636 21.2091 102.399 21.0195C102.174 20.8181 101.878 20.6581 101.51 20.5396C101.155 20.4211 100.669 20.2907 100.053 20.1485C99.1045 19.9233 98.3282 19.6981 97.7238 19.473C97.1194 19.2478 96.598 18.8864 96.1595 18.3886C95.7329 17.8909 95.5195 17.2272 95.5195 16.3977C95.5195 15.6748 95.7151 15.023 96.1062 14.4423C96.4973 13.8497 97.0839 13.3816 97.866 13.0379C98.66 12.6943 99.6259 12.5224 100.764 12.5224C101.558 12.5224 102.334 12.6172 103.092 12.8068C103.851 12.9964 104.514 13.269 105.083 13.6245L104.194 15.811C103.045 15.1592 101.895 14.8333 100.746 14.8333C99.9399 14.8333 99.3415 14.9637 98.9504 15.2244C98.5712 15.4851 98.3815 15.8288 98.3815 16.2555C98.3815 16.6821 98.6008 17.0021 99.0393 17.2154C99.4896 17.4168 100.171 17.6183 101.084 17.8198C102.032 18.0449 102.808 18.2701 103.412 18.4953C104.017 18.7204 104.532 19.076 104.959 19.5619C105.397 20.0477 105.617 20.7055 105.617 21.535C105.617 22.2461 105.415 22.8979 105.012 23.4904C104.621 24.0711 104.029 24.5333 103.235 24.877C102.44 25.2207 101.475 25.3925 100.337 25.3925ZM111.94 25.3214C110.932 25.3214 110.026 25.114 109.22 24.6992C108.426 24.2726 107.804 23.686 107.353 22.9394C106.903 22.1928 106.678 21.3454 106.678 20.3974C106.678 19.4493 106.903 18.6019 107.353 17.8553C107.804 17.1087 108.426 16.528 109.22 16.1132C110.026 15.6866 110.932 15.4733 111.94 15.4733C112.947 15.4733 113.848 15.6866 114.642 16.1132C115.436 16.528 116.058 17.1087 116.508 17.8553C116.958 18.6019 117.184 19.4493 117.184 20.3974C117.184 21.3454 116.958 22.1928 116.508 22.9394C116.058 23.686 115.436 24.2726 114.642 24.6992C113.848 25.114 112.947 25.3214 111.94 25.3214ZM111.94 23.046C112.651 23.046 113.231 22.809 113.682 22.335C114.144 21.8491 114.375 21.2032 114.375 20.3974C114.375 19.5915 114.144 18.9515 113.682 18.4775C113.231 17.9916 112.651 17.7487 111.94 17.7487C111.228 17.7487 110.642 17.9916 110.18 18.4775C109.717 18.9515 109.486 19.5915 109.486 20.3974C109.486 21.2032 109.717 21.8491 110.18 22.335C110.642 22.809 111.228 23.046 111.94 23.046ZM122.077 15.8288H124.53V17.962H122.148V25.1792H119.375V17.962H117.899V15.8288H119.375V15.4022C119.375 14.3119 119.695 13.4468 120.335 12.8068C120.987 12.1669 121.899 11.8469 123.072 11.8469C123.487 11.8469 123.878 11.8943 124.246 11.9891C124.625 12.0721 124.939 12.1965 125.188 12.3624L124.459 14.3712C124.139 14.146 123.766 14.0334 123.339 14.0334C122.498 14.0334 122.077 14.4956 122.077 15.42V15.8288ZM132.08 24.717C131.807 24.9185 131.47 25.0725 131.067 25.1792C130.676 25.274 130.261 25.3214 129.822 25.3214C128.685 25.3214 127.802 25.0311 127.174 24.4504C126.557 23.8697 126.249 23.0164 126.249 21.8906V17.962H124.774V15.8288H126.249V13.5001H129.022V15.8288H131.405V17.962H129.022V21.855C129.022 22.2579 129.123 22.572 129.325 22.7972C129.538 23.0105 129.834 23.1171 130.213 23.1171C130.652 23.1171 131.025 22.9986 131.333 22.7616L132.08 24.717Z" fill="#242424"/>
<path fill-rule="evenodd" clip-rule="evenodd" d="M40.2344 6.35931C40.2497 6.43439 40.2859 6.53633 40.3012 6.61141C40.7097 8.46702 40.5883 10.7495 39.8893 13.4535C39.8893 13.4535 39.8837 13.5017 39.8572 13.523C39.2771 15.8254 38.3259 18.4267 36.9773 21.3482C33.3808 29.1387 29.5328 33.7237 25.4542 35.13C25.0052 35.2732 24.5563 35.4164 24.092 35.4845C21.153 35.9729 18.1092 34.8854 14.9396 32.1952C13.3624 30.8876 11.7619 29.1619 10.1532 27.0932L9.40106 26.1261C9.15036 25.8037 8.94705 25.4868 8.69634 25.1644C7.11571 22.8547 5.97129 20.7179 5.31609 18.7114C4.40767 15.9913 4.4038 13.5476 5.25146 11.423C5.96507 9.62474 7.33098 8.00023 9.29617 6.59211C11.5738 4.97604 14.7085 3.63083 18.6265 2.5723C19.6193 2.297 20.6594 2.02721 21.7414 1.81116C26.592 0.787946 30.515 0.511852 33.4631 0.977356C37.2587 1.59043 39.4754 3.38785 40.2344 6.35931Z" fill="#3F8EFC"/>
<path fill-rule="evenodd" clip-rule="evenodd" d="M25.4908 35.1243C25.0413 35.2676 24.5917 35.411 24.1269 35.4791C21.1842 35.9681 18.1365 34.8794 14.9629 32.1862C13.3838 30.8771 11.7812 29.1495 10.1705 27.0785L9.41746 26.1103C9.16644 25.7875 8.96287 25.4703 8.71186 25.1475C7.12923 22.8352 5.98337 20.6961 5.32735 18.6873C11.0109 20.8901 19.4369 25.5648 25.4908 35.1243Z" fill="white" fill-opacity="0.33"/>
<path fill-rule="evenodd" clip-rule="evenodd" d="M24.1416 35.5061C21.1992 35.995 18.1519 34.9064 14.9786 32.2134C13.3997 30.9044 11.7973 29.177 10.1867 27.1062C5.27145 20.7861 3.66729 15.561 5.3059 11.3983C12.9066 15.5118 24.567 23.7913 24.1416 35.5061Z" fill="#FFFDFD" fill-opacity="0.33"/>
<path fill-rule="evenodd" clip-rule="evenodd" d="M40.2393 6.37729C40.2546 6.45233 40.2908 6.55422 40.306 6.62926C40.7144 8.48389 40.593 10.7652 39.8944 13.4677C39.8944 13.4677 39.8888 13.5159 39.8623 13.5373C39.2825 15.8385 38.3318 18.4383 36.9837 21.3583C32.9982 30.0272 28.7089 34.7046 24.1047 35.4871C21.1671 35.9753 18.1247 34.8884 14.9566 32.1996C13.3803 30.8927 11.7805 29.1679 10.1726 27.1003C9.65051 26.429 9.19672 25.7901 8.74292 25.1512C14.7699 24.3146 31.0776 20.7437 40.2393 6.37729Z" fill="white" fill-opacity="0.12"/>
<path fill-rule="evenodd" clip-rule="evenodd" d="M33.4899 0.974457C33.6528 1.01785 34.1474 1.09986 34.263 1.13774C19.6089 5.77939 12.1251 19.1425 9.42168 26.0792C9.17112 25.757 8.96794 25.4404 8.71739 25.1182C4.95816 19.6751 3.81057 15.0978 5.27462 11.3861C5.98779 9.58911 7.35286 7.96571 9.31685 6.55854C11.5931 4.94358 14.7259 3.59928 18.6415 2.54147C19.6336 2.26636 20.6732 1.99675 21.7544 1.78085C26.6494 0.763846 30.5436 0.509269 33.4899 0.974457Z" fill="white" fill-opacity="0.12"/>
<path fill-rule="evenodd" clip-rule="evenodd" d="M40.3293 6.66619C41.0848 10.0743 39.9864 14.9755 37.0343 21.3697C30.5147 35.5268 23.1583 39.1377 14.9651 32.2024C20.3938 30.1003 35.4382 22.9171 40.3293 6.66619Z" fill="#203FD8" fill-opacity="0.25"/>
<path d="M9.34454 6.59287C7.35816 7.97434 6.01856 9.57774 5.27834 11.3976C3.81318 15.1123 4.96164 19.6935 8.72373 25.1411C8.92707 25.458 9.17781 25.7804 9.42855 26.1029C9.67929 26.4253 9.93003 26.7478 10.1808 27.0702C11.8106 29.1661 13.3905 30.8651 14.9679 32.1729C18.1379 34.8635 21.2296 35.9567 24.1217 35.4627C28.7288 34.6797 33.0473 29.9777 37.0088 21.3243C38.3577 18.4024 39.309 15.8007 39.8892 13.498C26.8662 6.50753 10.2829 6.57997 9.34454 6.59287Z" fill="url(#paint0_linear)"/>
<path fill-rule="evenodd" clip-rule="evenodd" d="M39.8952 13.4495C39.8952 13.4495 39.8896 13.4978 39.8631 13.5191C39.2829 15.8219 38.3316 18.4235 36.9827 21.3454C32.9947 30.0201 28.7027 34.7008 24.0955 35.4838C21.1561 35.9723 18.1118 34.8847 14.9418 32.194C13.3644 30.8862 11.7636 29.1603 10.1547 27.0913L9.40245 26.124C9.1517 25.8016 8.94836 25.4847 8.69762 25.1622C4.93554 19.7146 3.78708 15.1335 5.25224 11.4187C5.96595 9.62024 7.33206 7.99549 9.29754 6.58716C11.5755 4.97085 14.7107 3.62544 18.6293 2.56676C19.6222 2.29141 20.6625 2.02159 21.7446 1.8055C23.1488 1.50475 24.5209 1.27357 25.7661 1.10091C24.5209 1.27357 23.1962 1.51027 21.792 1.81102C20.7099 2.02711 19.6696 2.29693 18.6767 2.57228C24.7088 3.78795 33.2117 6.68426 39.8952 13.4495Z" fill="url(#paint1_linear)"/>
<defs>
<linearGradient id="paint0_linear" x1="12.489" y1="30.8633" x2="27.9997" y2="6.05959" gradientUnits="userSpaceOnUse">
<stop offset="0.21" stop-color="#3F64FC" stop-opacity="0"/>
<stop offset="0.9292" stop-color="#3F64FC" stop-opacity="0.9104"/>
<stop offset="1" stop-color="#3F64FC"/>
</linearGradient>
<linearGradient id="paint1_linear" x1="14.6412" y1="33.0404" x2="27.2381" y2="1.68769" gradientUnits="userSpaceOnUse">
<stop offset="0.5801" stop-color="#0042FF" stop-opacity="0"/>
<stop offset="0.8276" stop-color="#0044FF" stop-opacity="0.5895"/>
<stop offset="0.9167" stop-color="#004BFF" stop-opacity="0.8016"/>
<stop offset="0.98" stop-color="#0056FF" stop-opacity="0.9525"/>
<stop offset="1" stop-color="#005CFF"/>
</linearGradient>
</defs>
</svg>
